<?xml version="1.0" standalone="no"?>
<!DOCTYPE svg PUBLIC "-//W3C//DTD SVG 20010904//EN"
 "http://www.w3.org/TR/2001/REC-SVG-20010904/DTD/svg10.dtd">
<svg version="1.0" xmlns="http://www.w3.org/2000/svg"
 width="300.000000pt" height="304.000000pt" viewBox="0 0 300.000000 304.000000"
 preserveAspectRatio="xMidYMid meet">
<metadata>
Created by potrace 1.10, written by Peter Selinger 2001-2011
</metadata>
<g transform="translate(0.000000,304.000000) scale(0.100000,-0.100000)"
fill="#000000" stroke="none">
<path d="M1827 3030 c-266 -17 -559 -92 -772 -197 -261 -130 -473 -314 -627
-543 -166 -246 -238 -493 -238 -814 0 -136 5 -192 31 -347 36 -208 44 -434 21
-544 -36 -168 -96 -301 -183 -411 -27 -34 -49 -65 -49 -68 0 -17 196 77 285
137 80 54 221 196 275 276 49 73 100 180 126 266 29 94 26 307 -6 450 -34 150
-35 387 -1 510 88 328 354 611 693 739 149 56 240 71 433 71 152 0 197 -4 285
-24 108 -23 259 -75 341 -117 l46 -23 51 63 c72 88 272 280 370 355 48 36 80
67 75 72 -5 5 -60 22 -123 38 -358 93 -709 131 -1033 111z"/>
<path d="M1605 2419 c-267 -53 -485 -180 -639 -373 -130 -164 -202 -380 -178
-536 l8 -55 13 55 c86 353 258 598 513 726 158 80 250 103 435 111 210 9 338
-16 517 -100 l88 -41 19 23 c11 13 18 29 16 35 -6 22 -194 106 -292 132 -86
23 -124 27 -275 30 -96 1 -197 -2 -225 -7z"/>
<path d="M1595 2191 c-148 -40 -245 -90 -351 -179 -126 -106 -218 -250 -266
-417 -20 -69 -23 -102 -23 -245 0 -146 3 -177 27 -272 30 -119 28 -169 -14
-298 -21 -67 -101 -232 -137 -285 -12 -16 -21 -33 -21 -38 0 -10 83 32 310
158 102 56 231 126 288 156 l104 54 -7 105 c-6 99 -8 106 -33 124 -38 27 -152
143 -152 154 0 6 51 -17 113 -49 61 -33 131 -69 155 -81 35 -18 42 -27 43 -52
1 -17 4 -112 8 -211 l6 -180 135 -84 c292 -183 893 -541 898 -536 3 3 -13 157
-37 343 -23 185 -54 438 -67 562 -14 124 -29 232 -33 240 -5 9 -36 20 -81 27
-139 24 -181 40 -231 93 -25 27 -69 83 -98 127 l-53 78 39 3 c39 3 482 -53
491 -62 2 -3 15 -96 29 -208 14 -112 30 -208 37 -215 21 -22 226 -125 226
-113 0 6 -27 102 -61 213 -33 111 -78 270 -99 352 -36 140 -101 501 -116 643
-4 34 -10 64 -13 67 -4 2 -27 -12 -51 -31 -24 -19 -77 -60 -117 -91 l-73 -55
-72 55 c-144 110 -286 157 -493 163 -116 3 -152 1 -210 -15z"/>
</g>
</svg>
